<svg id="svg" version="1.1" xmlns="http://www.w3.org/2000/svg" xmlns:xlink="http://www.w3.org/1999/xlink" width="400" height="400" viewBox="0, 0, 400,400"><g id="svgg"><path id="path0" d="M43.100 0.292 C 42.055 0.375,41.200 0.614,41.200 0.822 C 41.200 1.030,40.480 1.200,39.600 1.200 C 38.720 1.200,38.000 1.380,38.000 1.600 C 38.000 1.820,37.460 2.000,36.800 2.000 C 36.140 2.000,35.600 2.180,35.600 2.400 C 35.600 2.620,35.251 2.800,34.824 2.800 C 34.397 2.800,33.936 2.980,33.800 3.200 C 33.664 3.420,33.113 3.600,32.576 3.600 C 32.039 3.600,31.600 3.780,31.600 4.000 C 31.600 4.220,31.240 4.400,30.800 4.400 C 30.360 4.400,30.000 4.580,30.000 4.800 C 30.000 5.020,29.640 5.200,29.200 5.200 C 28.760 5.200,28.400 5.336,28.400 5.502 C 28.400 5.669,27.894 6.029,27.275 6.303 C 26.656 6.576,25.764 7.160,25.292 7.600 C 24.820 8.040,24.246 8.400,24.018 8.400 C 21.894 8.400,8.400 21.926,8.400 24.054 C 8.400 24.303,8.071 24.797,7.670 25.153 C 7.268 25.509,6.684 26.385,6.372 27.100 C 6.060 27.815,5.669 28.400,5.502 28.400 C 5.336 28.400,5.200 28.760,5.200 29.200 C 5.200 29.640,5.020 30.000,4.800 30.000 C 4.580 30.000,4.400 30.360,4.400 30.800 C 4.400 31.240,4.220 31.600,4.000 31.600 C 3.780 31.600,3.600 32.039,3.600 32.576 C 3.600 33.113,3.420 33.664,3.200 33.800 C 2.980 33.936,2.800 34.397,2.800 34.824 C 2.800 35.251,2.620 35.600,2.400 35.600 C 2.180 35.600,2.000 36.140,2.000 36.800 C 2.000 37.460,1.820 38.000,1.600 38.000 C 1.380 38.000,1.200 38.705,1.200 39.567 C 1.200 40.464,0.987 41.204,0.700 41.300 C -0.036 41.545,-0.036 358.455,0.700 358.700 C 0.987 358.796,1.200 359.536,1.200 360.433 C 1.200 361.295,1.380 362.000,1.600 362.000 C 1.820 362.000,2.000 362.540,2.000 363.200 C 2.000 363.860,2.180 364.400,2.400 364.400 C 2.620 364.400,2.800 364.760,2.800 365.200 C 2.800 365.640,2.980 366.000,3.200 366.000 C 3.420 366.000,3.600 366.540,3.600 367.200 C 3.600 367.860,3.780 368.400,4.000 368.400 C 4.220 368.400,4.400 368.760,4.400 369.200 C 4.400 369.640,4.580 370.000,4.800 370.000 C 5.020 370.000,5.200 370.360,5.200 370.800 C 5.200 371.240,5.336 371.600,5.502 371.600 C 5.669 371.600,6.060 372.185,6.372 372.900 C 6.684 373.615,7.268 374.491,7.670 374.847 C 8.071 375.203,8.400 375.745,8.400 376.051 C 8.400 376.357,8.850 377.093,9.400 377.687 C 9.950 378.280,10.400 378.948,10.400 379.171 C 10.400 379.701,20.300 389.600,20.830 389.600 C 21.053 389.600,21.686 390.050,22.236 390.600 C 22.786 391.150,23.506 391.600,23.835 391.600 C 24.164 391.600,24.820 391.960,25.292 392.400 C 25.764 392.840,26.656 393.424,27.275 393.697 C 27.894 393.971,28.400 394.331,28.400 394.498 C 28.400 394.664,28.760 394.800,29.200 394.800 C 29.640 394.800,30.000 394.980,30.000 395.200 C 30.000 395.420,30.360 395.600,30.800 395.600 C 31.240 395.600,31.600 395.780,31.600 396.000 C 31.600 396.220,32.140 396.400,32.800 396.400 C 33.460 396.400,34.000 396.580,34.000 396.800 C 34.000 397.020,34.360 397.200,34.800 397.200 C 35.240 397.200,35.600 397.380,35.600 397.600 C 35.600 397.820,36.140 398.000,36.800 398.000 C 37.460 398.000,38.000 398.180,38.000 398.400 C 38.000 398.620,38.705 398.800,39.567 398.800 C 40.464 398.800,41.204 399.013,41.300 399.300 C 41.545 400.036,358.455 400.036,358.700 399.300 C 358.796 399.013,359.536 398.800,360.433 398.800 C 361.295 398.800,362.000 398.620,362.000 398.400 C 362.000 398.180,362.540 398.000,363.200 398.000 C 363.860 398.000,364.400 397.820,364.400 397.600 C 364.400 397.380,364.760 397.200,365.200 397.200 C 365.640 397.200,366.000 397.020,366.000 396.800 C 366.000 396.580,366.540 396.400,367.200 396.400 C 367.860 396.400,368.400 396.220,368.400 396.000 C 368.400 395.780,368.760 395.600,369.200 395.600 C 369.640 395.600,370.000 395.420,370.000 395.200 C 370.000 394.980,370.360 394.800,370.800 394.800 C 371.240 394.800,371.600 394.664,371.600 394.498 C 371.600 394.331,372.185 393.940,372.900 393.628 C 373.615 393.316,374.491 392.732,374.847 392.330 C 375.203 391.929,375.780 391.600,376.129 391.600 C 376.478 391.600,377.214 391.150,377.764 390.600 C 378.314 390.050,378.947 389.600,379.170 389.600 C 379.701 389.600,389.600 379.701,389.600 379.170 C 389.600 378.947,390.050 378.314,390.600 377.764 C 391.150 377.214,391.600 376.494,391.600 376.165 C 391.600 375.836,391.960 375.180,392.400 374.708 C 392.840 374.236,393.424 373.344,393.697 372.725 C 393.971 372.106,394.331 371.600,394.498 371.600 C 394.664 371.600,394.800 371.240,394.800 370.800 C 394.800 370.360,394.980 370.000,395.200 370.000 C 395.420 370.000,395.600 369.640,395.600 369.200 C 395.600 368.760,395.780 368.400,396.000 368.400 C 396.220 368.400,396.400 367.961,396.400 367.424 C 396.400 366.887,396.580 366.336,396.800 366.200 C 397.020 366.064,397.200 365.603,397.200 365.176 C 397.200 364.749,397.380 364.400,397.600 364.400 C 397.820 364.400,398.000 363.860,398.000 363.200 C 398.000 362.540,398.180 362.000,398.400 362.000 C 398.620 362.000,398.800 361.295,398.800 360.433 C 398.800 359.536,399.013 358.796,399.300 358.700 C 399.699 358.567,399.800 326.471,399.800 200.000 C 399.800 73.529,399.699 41.433,399.300 41.300 C 399.013 41.204,398.800 40.464,398.800 39.567 C 398.800 38.705,398.620 38.000,398.400 38.000 C 398.180 38.000,398.000 37.460,398.000 36.800 C 398.000 36.140,397.820 35.600,397.600 35.600 C 397.380 35.600,397.200 35.251,397.200 34.824 C 397.200 34.397,397.020 33.936,396.800 33.800 C 396.580 33.664,396.400 33.113,396.400 32.576 C 396.400 32.039,396.220 31.600,396.000 31.600 C 395.780 31.600,395.600 31.240,395.600 30.800 C 395.600 30.360,395.420 30.000,395.200 30.000 C 394.980 30.000,394.800 29.640,394.800 29.200 C 394.800 28.760,394.664 28.400,394.498 28.400 C 394.331 28.400,393.971 27.894,393.697 27.275 C 393.424 26.656,392.840 25.764,392.400 25.292 C 391.960 24.820,391.600 24.169,391.600 23.845 C 391.600 23.522,391.369 23.019,391.087 22.729 C 390.805 22.438,390.134 21.570,389.596 20.800 C 388.379 19.059,379.686 10.400,379.155 10.400 C 378.940 10.400,378.280 9.950,377.687 9.400 C 377.093 8.850,376.357 8.400,376.051 8.400 C 375.745 8.400,375.203 8.071,374.847 7.670 C 374.491 7.268,373.615 6.684,372.900 6.372 C 372.185 6.060,371.600 5.669,371.600 5.502 C 371.600 5.336,371.240 5.200,370.800 5.200 C 370.360 5.200,370.000 5.020,370.000 4.800 C 370.000 4.580,369.640 4.400,369.200 4.400 C 368.760 4.400,368.400 4.220,368.400 4.000 C 368.400 3.780,367.961 3.600,367.424 3.600 C 366.887 3.600,366.336 3.420,366.200 3.200 C 366.064 2.980,365.603 2.800,365.176 2.800 C 364.749 2.800,364.400 2.620,364.400 2.400 C 364.400 2.180,363.860 2.000,363.200 2.000 C 362.540 2.000,362.000 1.820,362.000 1.600 C 362.000 1.380,361.295 1.200,360.433 1.200 C 359.536 1.200,358.796 0.987,358.700 0.700 C 358.544 0.230,48.871 -0.170,43.100 0.292 M206.000 81.200 C 206.000 81.441,207.659 81.600,210.176 81.600 C 212.529 81.600,214.461 81.775,214.600 82.000 C 214.736 82.220,215.996 82.400,217.400 82.400 C 218.804 82.400,220.064 82.580,220.200 82.800 C 220.336 83.020,221.427 83.200,222.624 83.200 C 223.821 83.200,224.800 83.380,224.800 83.600 C 224.800 83.820,225.509 84.000,226.376 84.000 C 227.243 84.000,228.064 84.180,228.200 84.400 C 228.336 84.620,229.157 84.800,230.024 84.800 C 230.891 84.800,231.600 84.980,231.600 85.200 C 231.600 85.420,232.129 85.600,232.776 85.600 C 233.423 85.600,234.064 85.780,234.200 86.000 C 234.336 86.220,235.067 86.400,235.824 86.400 C 236.581 86.400,237.200 86.580,237.200 86.800 C 237.200 87.020,237.740 87.200,238.400 87.200 C 239.060 87.200,239.600 87.380,239.600 87.600 C 239.600 87.820,240.140 88.000,240.800 88.000 C 241.460 88.000,242.000 88.180,242.000 88.400 C 242.000 88.620,242.279 88.800,242.619 88.800 C 242.960 88.800,243.984 89.160,244.894 89.600 C 245.805 90.040,246.766 90.400,247.029 90.400 C 247.293 90.400,248.024 90.669,248.654 90.998 C 249.284 91.326,250.115 91.596,250.500 91.598 C 250.885 91.599,251.200 91.780,251.200 92.000 C 251.200 92.220,251.560 92.400,252.000 92.400 C 252.440 92.400,252.800 92.580,252.800 92.800 C 252.800 93.020,253.053 93.200,253.362 93.200 C 254.028 93.200,257.341 94.868,257.533 95.300 C 257.607 95.465,258.012 95.600,258.433 95.600 C 258.855 95.600,259.200 95.746,259.200 95.925 C 259.200 96.104,259.830 96.498,260.600 96.800 C 261.370 97.102,262.000 97.496,262.000 97.675 C 262.000 97.854,262.278 98.000,262.617 98.000 C 262.956 98.000,263.620 98.360,264.092 98.800 C 264.564 99.240,265.187 99.600,265.475 99.600 C 265.764 99.600,266.000 99.780,266.000 100.000 C 266.000 100.220,266.236 100.400,266.525 100.400 C 266.813 100.400,267.436 100.760,267.908 101.200 C 268.380 101.640,269.004 102.000,269.295 102.000 C 269.586 102.000,270.083 102.360,270.400 102.800 C 270.717 103.240,271.162 103.600,271.388 103.600 C 271.615 103.601,272.271 104.006,272.848 104.500 C 273.424 104.995,274.912 106.120,276.156 107.000 C 277.399 107.880,279.427 109.545,280.662 110.700 C 281.897 111.855,283.065 112.800,283.258 112.800 C 283.726 112.800,291.376 120.502,293.400 123.010 C 294.280 124.101,295.675 125.691,296.500 126.545 C 297.325 127.398,298.000 128.273,298.000 128.488 C 298.000 128.703,298.540 129.383,299.200 130.000 C 299.860 130.617,300.400 131.369,300.400 131.672 C 300.400 131.975,300.760 132.483,301.200 132.800 C 301.640 133.117,302.000 133.607,302.000 133.888 C 302.000 134.170,302.180 134.400,302.400 134.400 C 302.620 134.400,302.800 134.588,302.800 134.817 C 302.800 135.046,303.160 135.620,303.600 136.092 C 304.040 136.564,304.400 137.187,304.400 137.475 C 304.400 137.764,304.580 138.000,304.800 138.000 C 305.020 138.000,305.200 138.270,305.200 138.600 C 305.200 138.930,305.380 139.200,305.600 139.200 C 305.820 139.200,306.000 139.470,306.000 139.800 C 306.000 140.130,306.180 140.400,306.400 140.400 C 306.620 140.400,306.800 140.670,306.800 141.000 C 306.800 141.330,306.980 141.600,307.200 141.600 C 307.420 141.600,307.600 141.945,307.600 142.367 C 307.600 142.788,307.755 143.193,307.944 143.267 C 308.359 143.428,312.800 152.437,312.800 153.119 C 312.800 153.384,312.980 153.600,313.200 153.600 C 313.420 153.600,313.600 153.960,313.600 154.400 C 313.600 154.840,313.780 155.200,314.000 155.200 C 314.220 155.200,314.400 155.549,314.400 155.976 C 314.400 156.403,314.580 156.864,314.800 157.000 C 315.020 157.136,315.200 157.597,315.200 158.024 C 315.200 158.451,315.380 158.800,315.600 158.800 C 315.820 158.800,316.000 159.239,316.000 159.776 C 316.000 160.313,316.180 160.864,316.400 161.000 C 316.620 161.136,316.800 161.597,316.800 162.024 C 316.800 162.451,316.980 162.800,317.200 162.800 C 317.420 162.800,317.600 163.340,317.600 164.000 C 317.600 164.660,317.780 165.200,318.000 165.200 C 318.220 165.200,318.400 165.740,318.400 166.400 C 318.400 167.060,318.580 167.600,318.800 167.600 C 319.020 167.600,319.200 168.219,319.200 168.976 C 319.200 169.733,319.380 170.464,319.600 170.600 C 319.820 170.736,320.000 171.377,320.000 172.024 C 320.000 172.671,320.180 173.200,320.400 173.200 C 320.620 173.200,320.800 173.819,320.800 174.576 C 320.800 175.333,320.980 176.064,321.200 176.200 C 321.420 176.336,321.600 177.247,321.600 178.224 C 321.600 179.201,321.780 180.000,322.000 180.000 C 322.220 180.000,322.400 180.889,322.400 181.976 C 322.400 183.063,322.580 184.064,322.800 184.200 C 323.020 184.336,323.200 185.697,323.200 187.224 C 323.200 188.808,323.372 190.000,323.600 190.000 C 323.858 190.000,324.000 194.592,324.000 202.976 C 324.000 211.196,323.853 216.043,323.600 216.200 C 323.380 216.336,323.200 217.686,323.200 219.200 C 323.200 220.714,323.020 222.064,322.800 222.200 C 322.580 222.336,322.400 223.337,322.400 224.424 C 322.400 225.511,322.220 226.400,322.000 226.400 C 321.780 226.400,321.600 227.109,321.600 227.976 C 321.600 228.843,321.420 229.664,321.200 229.800 C 320.980 229.936,320.800 230.757,320.800 231.624 C 320.800 232.491,320.620 233.200,320.400 233.200 C 320.180 233.200,320.000 233.729,320.000 234.376 C 320.000 235.023,319.820 235.664,319.600 235.800 C 319.380 235.936,319.200 236.667,319.200 237.424 C 319.200 238.181,319.020 238.800,318.800 238.800 C 318.580 238.800,318.400 239.340,318.400 240.000 C 318.400 240.660,318.220 241.200,318.000 241.200 C 317.780 241.200,317.600 241.650,317.600 242.200 C 317.600 242.750,317.420 243.200,317.200 243.200 C 316.980 243.200,316.800 243.650,316.800 244.200 C 316.800 244.750,316.620 245.200,316.400 245.200 C 316.180 245.200,316.000 245.650,316.000 246.200 C 316.000 246.750,315.820 247.200,315.600 247.200 C 315.380 247.200,315.200 247.549,315.200 247.976 C 315.200 248.403,315.020 248.864,314.800 249.000 C 314.580 249.136,314.400 249.687,314.400 250.224 C 314.400 250.761,314.220 251.200,314.000 251.200 C 313.780 251.200,313.600 251.560,313.600 252.000 C 313.600 252.440,313.420 252.800,313.200 252.800 C 312.980 252.800,312.800 253.160,312.800 253.600 C 312.800 254.040,312.620 254.400,312.400 254.400 C 312.180 254.400,312.000 254.760,312.000 255.200 C 312.000 255.640,311.820 256.000,311.600 256.000 C 311.380 256.000,311.200 256.360,311.200 256.800 C 311.200 257.240,311.020 257.600,310.800 257.600 C 310.580 257.600,310.400 257.960,310.400 258.400 C 310.400 258.840,310.265 259.202,310.100 259.205 C 309.935 259.208,309.260 260.378,308.600 261.805 C 307.940 263.232,307.265 264.400,307.100 264.400 C 306.935 264.400,306.800 264.720,306.800 265.112 C 306.800 265.503,306.440 266.083,306.000 266.400 C 305.560 266.717,305.200 267.257,305.200 267.600 C 305.200 267.943,304.840 268.483,304.400 268.800 C 303.960 269.117,303.600 269.657,303.600 270.000 C 303.600 270.343,303.240 270.883,302.800 271.200 C 302.360 271.517,302.000 272.025,302.000 272.328 C 302.000 272.631,301.460 273.383,300.800 274.000 C 300.140 274.617,299.600 275.304,299.600 275.527 C 299.600 275.751,299.458 275.993,299.285 276.067 C 299.112 276.140,298.347 277.003,297.585 277.984 C 296.823 278.966,295.840 280.153,295.400 280.623 C 293.522 282.627,292.118 284.290,291.196 285.600 C 290.013 287.281,286.954 290.400,286.489 290.400 C 286.166 290.400,284.825 291.537,281.285 294.813 C 280.341 295.686,279.440 296.400,279.283 296.400 C 279.125 296.400,278.231 297.120,277.297 298.000 C 276.363 298.880,275.458 299.600,275.287 299.600 C 275.117 299.600,274.717 299.960,274.400 300.400 C 274.083 300.840,273.638 301.200,273.412 301.201 C 273.185 301.201,272.370 301.741,271.600 302.400 C 270.830 303.059,270.057 303.599,269.883 303.599 C 269.709 303.600,269.180 303.960,268.708 304.400 C 268.236 304.840,267.613 305.200,267.325 305.200 C 267.036 305.200,266.800 305.380,266.800 305.600 C 266.800 305.820,266.564 306.000,266.275 306.000 C 265.987 306.000,265.364 306.360,264.892 306.800 C 264.420 307.240,263.771 307.600,263.450 307.600 C 263.129 307.600,262.807 307.735,262.733 307.900 C 262.660 308.065,261.478 308.740,260.107 309.400 C 258.735 310.060,257.610 310.735,257.607 310.900 C 257.603 311.065,257.240 311.200,256.800 311.200 C 256.360 311.200,256.000 311.380,256.000 311.600 C 256.000 311.820,255.640 312.000,255.200 312.000 C 254.760 312.000,254.400 312.180,254.400 312.400 C 254.400 312.620,254.128 312.800,253.795 312.800 C 253.462 312.800,252.832 312.980,252.395 313.200 C 251.958 313.420,251.242 313.780,250.805 314.000 C 250.368 314.220,249.738 314.400,249.405 314.400 C 249.072 314.400,248.800 314.580,248.800 314.800 C 248.800 315.020,248.451 315.200,248.024 315.200 C 247.597 315.200,247.136 315.380,247.000 315.600 C 246.864 315.820,246.313 316.000,245.776 316.000 C 245.239 316.000,244.800 316.180,244.800 316.400 C 244.800 316.620,244.350 316.800,243.800 316.800 C 243.250 316.800,242.800 316.980,242.800 317.200 C 242.800 317.420,242.361 317.600,241.824 317.600 C 241.287 317.600,240.736 317.780,240.600 318.000 C 240.464 318.220,239.823 318.400,239.176 318.400 C 238.529 318.400,238.000 318.580,238.000 318.800 C 238.000 319.320,236.522 319.320,236.200 318.800 C 236.064 318.580,235.597 318.400,235.163 318.400 C 234.729 318.400,233.749 317.776,232.987 317.013 L 231.600 315.627 231.600 295.213 C 231.600 281.871,231.461 274.800,231.200 274.800 C 230.978 274.800,230.800 273.733,230.800 272.400 C 230.800 271.067,230.622 270.000,230.400 270.000 C 230.180 270.000,230.000 269.280,230.000 268.400 C 230.000 267.520,229.820 266.800,229.600 266.800 C 229.380 266.800,229.200 266.451,229.200 266.024 C 229.200 265.597,229.020 265.136,228.800 265.000 C 228.580 264.864,228.400 264.403,228.400 263.976 C 228.400 263.549,228.264 263.200,228.098 263.200 C 227.931 263.200,227.540 262.615,227.228 261.900 C 226.916 261.185,226.377 260.328,226.030 259.996 C 224.102 258.147,224.264 257.682,226.917 257.451 C 231.240 257.075,233.388 256.734,233.780 256.361 C 233.989 256.163,234.923 256.000,235.856 256.000 C 236.789 256.000,237.664 255.820,237.800 255.600 C 237.936 255.380,238.566 255.200,239.200 255.200 C 239.834 255.200,240.464 255.020,240.600 254.800 C 240.736 254.580,241.377 254.400,242.024 254.400 C 242.671 254.400,243.200 254.220,243.200 254.000 C 243.200 253.780,243.740 253.600,244.400 253.600 C 245.060 253.600,245.600 253.420,245.600 253.200 C 245.600 252.980,246.039 252.800,246.576 252.800 C 247.113 252.800,247.664 252.620,247.800 252.400 C 247.936 252.180,248.397 252.000,248.824 252.000 C 249.251 252.000,249.600 251.820,249.600 251.600 C 249.600 251.380,249.960 251.200,250.400 251.200 C 250.840 251.200,251.200 251.020,251.200 250.800 C 251.200 250.580,251.434 250.400,251.720 250.400 C 252.456 250.400,254.393 249.459,254.397 249.100 C 254.399 248.935,254.760 248.800,255.200 248.800 C 255.640 248.800,256.000 248.620,256.000 248.400 C 256.000 248.180,256.270 248.000,256.600 248.000 C 256.930 248.000,257.200 247.820,257.200 247.600 C 257.200 247.380,257.470 247.200,257.800 247.200 C 258.130 247.200,258.400 247.020,258.400 246.800 C 258.400 246.580,258.598 246.400,258.840 246.400 C 259.081 246.400,259.783 245.860,260.400 245.200 C 261.017 244.540,261.726 244.000,261.976 244.000 C 262.456 244.000,267.600 239.050,267.600 238.589 C 267.600 238.442,268.140 237.817,268.800 237.200 C 269.460 236.583,270.000 235.831,270.000 235.528 C 270.000 235.225,270.360 234.717,270.800 234.400 C 271.240 234.083,271.600 233.518,271.600 233.145 C 271.600 232.772,271.758 232.407,271.950 232.333 C 272.456 232.141,274.651 227.630,274.981 226.105 C 275.135 225.392,275.428 224.706,275.631 224.581 C 275.834 224.455,276.000 223.913,276.000 223.376 C 276.000 222.839,276.180 222.400,276.400 222.400 C 276.620 222.400,276.800 221.860,276.800 221.200 C 276.800 220.540,276.980 220.000,277.200 220.000 C 277.420 220.000,277.600 219.280,277.600 218.400 C 277.600 217.520,277.780 216.800,278.000 216.800 C 278.220 216.800,278.400 215.900,278.400 214.800 C 278.400 213.700,278.580 212.800,278.800 212.800 C 279.033 212.800,279.200 211.467,279.200 209.600 C 279.200 207.733,279.367 206.400,279.600 206.400 C 279.854 206.400,280.000 203.333,280.000 198.000 C 280.000 192.667,279.854 189.600,279.600 189.600 C 279.378 189.600,279.200 188.533,279.200 187.200 C 279.200 185.867,279.022 184.800,278.800 184.800 C 278.580 184.800,278.400 184.080,278.400 183.200 C 278.400 182.320,278.220 181.600,278.000 181.600 C 277.780 181.600,277.600 181.060,277.600 180.400 C 277.600 179.740,277.420 179.200,277.200 179.200 C 276.980 179.200,276.800 178.851,276.800 178.424 C 276.800 177.997,276.620 177.536,276.400 177.400 C 276.180 177.264,276.000 176.803,276.000 176.376 C 276.000 175.949,275.820 175.600,275.600 175.600 C 275.380 175.600,275.200 175.336,275.200 175.014 C 275.200 174.201,273.924 171.600,273.526 171.600 C 273.347 171.600,273.200 171.240,273.200 170.800 C 273.200 170.360,273.032 170.000,272.827 170.000 C 272.622 170.000,272.338 169.634,272.196 169.187 C 272.054 168.740,271.502 167.938,270.969 167.405 C 270.436 166.872,270.000 166.275,270.000 166.078 C 270.000 165.880,269.460 165.154,268.800 164.463 C 267.617 163.225,267.219 162.000,268.000 162.000 C 268.220 162.000,268.400 161.471,268.400 160.824 C 268.400 160.177,268.580 159.536,268.800 159.400 C 269.020 159.264,269.200 158.094,269.200 156.800 C 269.200 155.506,269.380 154.336,269.600 154.200 C 269.829 154.059,270.000 152.004,270.000 149.400 C 270.000 146.796,269.829 144.741,269.600 144.600 C 269.380 144.464,269.200 143.283,269.200 141.976 C 269.200 140.659,269.022 139.600,268.800 139.600 C 268.580 139.600,268.400 138.880,268.400 138.000 C 268.400 137.120,268.220 136.400,268.000 136.400 C 267.780 136.400,267.600 136.037,267.600 135.594 C 267.600 134.467,266.669 131.600,266.303 131.600 C 266.136 131.600,266.000 131.240,266.000 130.800 C 266.000 129.910,258.334 129.536,257.800 130.400 C 257.664 130.620,256.843 130.800,255.976 130.800 C 255.109 130.800,254.400 130.980,254.400 131.200 C 254.400 131.420,254.037 131.600,253.594 131.600 C 252.467 131.600,249.600 132.531,249.600 132.897 C 249.600 133.064,249.161 133.200,248.624 133.200 C 248.087 133.200,247.536 133.380,247.400 133.600 C 247.264 133.820,246.803 134.000,246.376 134.000 C 245.949 134.000,245.600 134.180,245.600 134.400 C 245.600 134.620,245.240 134.800,244.800 134.800 C 244.360 134.800,244.000 134.946,244.000 135.125 C 244.000 135.304,243.370 135.698,242.600 136.000 C 241.830 136.302,241.200 136.696,241.200 136.875 C 241.200 137.054,240.840 137.200,240.400 137.200 C 239.960 137.200,239.600 137.380,239.600 137.600 C 239.600 137.820,239.240 138.000,238.800 138.000 C 238.360 138.000,238.000 138.180,238.000 138.400 C 238.000 138.620,237.764 138.800,237.475 138.800 C 237.187 138.800,236.564 139.160,236.092 139.600 C 235.620 140.040,235.038 140.400,234.800 140.400 C 234.562 140.400,233.983 140.758,233.513 141.195 C 232.315 142.312,230.323 142.584,227.672 141.993 C 226.423 141.714,224.590 141.405,223.600 141.305 C 222.610 141.204,221.629 140.960,221.420 140.761 C 221.211 140.563,220.007 140.400,218.744 140.400 C 217.481 140.400,216.336 140.220,216.200 140.000 C 216.062 139.777,214.196 139.600,211.976 139.600 C 209.592 139.600,208.000 139.440,208.000 139.200 C 208.000 138.947,205.067 138.800,200.000 138.800 C 194.933 138.800,192.000 138.947,192.000 139.200 C 192.000 139.441,190.341 139.600,187.824 139.600 C 185.471 139.600,183.539 139.775,183.400 140.000 C 183.264 140.220,182.083 140.400,180.776 140.400 C 179.469 140.400,178.400 140.563,178.400 140.761 C 178.400 140.960,177.545 141.209,176.500 141.315 C 175.455 141.420,173.316 141.726,171.747 141.994 C 168.887 142.484,166.000 141.861,166.000 140.754 C 166.000 140.559,165.640 140.400,165.200 140.400 C 164.760 140.400,164.400 140.220,164.400 140.000 C 164.400 139.780,164.080 139.600,163.688 139.600 C 163.297 139.600,162.717 139.240,162.400 138.800 C 162.083 138.360,161.503 138.000,161.112 138.000 C 160.720 138.000,160.400 137.820,160.400 137.600 C 160.400 137.380,160.040 137.200,159.600 137.200 C 159.160 137.200,158.800 137.054,158.800 136.875 C 158.800 136.696,158.170 136.302,157.400 136.000 C 156.630 135.698,156.000 135.304,156.000 135.125 C 156.000 134.946,155.651 134.800,155.224 134.800 C 154.797 134.800,154.336 134.620,154.200 134.400 C 154.064 134.180,153.513 134.000,152.976 134.000 C 152.439 134.000,152.000 133.820,152.000 133.600 C 152.000 133.380,151.640 133.200,151.200 133.200 C 150.760 133.200,150.400 133.020,150.400 132.800 C 150.400 132.580,149.860 132.400,149.200 132.400 C 148.540 132.400,148.000 132.220,148.000 132.000 C 148.000 131.780,147.460 131.600,146.800 131.600 C 146.140 131.600,145.600 131.420,145.600 131.200 C 145.600 130.980,144.700 130.800,143.600 130.800 C 142.488 130.800,141.600 130.616,141.600 130.386 C 141.600 130.120,140.132 130.013,137.500 130.086 L 133.400 130.200 133.273 131.300 C 133.204 131.905,132.979 132.400,132.773 132.400 C 132.568 132.400,132.400 132.940,132.400 133.600 C 132.400 134.260,132.220 134.800,132.000 134.800 C 131.780 134.800,131.600 135.419,131.600 136.176 C 131.600 136.933,131.420 137.664,131.200 137.800 C 130.980 137.936,130.800 138.746,130.800 139.600 C 130.800 140.454,130.620 141.264,130.400 141.400 C 130.156 141.551,130.000 144.663,130.000 149.400 C 130.000 154.137,130.156 157.249,130.400 157.400 C 130.620 157.536,130.800 158.346,130.800 159.200 C 130.800 160.054,130.980 160.864,131.200 161.000 C 132.217 161.628,131.606 163.993,130.000 165.648 C 129.120 166.555,128.400 167.462,128.400 167.665 C 128.400 167.868,128.040 168.420,127.600 168.892 C 127.160 169.364,126.800 169.987,126.800 170.275 C 126.800 170.564,126.655 170.800,126.477 170.800 C 126.123 170.800,124.800 173.588,124.800 174.334 C 124.800 174.590,124.620 174.800,124.400 174.800 C 124.180 174.800,124.000 175.160,124.000 175.600 C 124.000 176.040,123.820 176.400,123.600 176.400 C 123.380 176.400,123.200 176.850,123.200 177.400 C 123.200 177.950,123.020 178.400,122.800 178.400 C 122.580 178.400,122.400 178.940,122.400 179.600 C 122.400 180.260,122.220 180.800,122.000 180.800 C 121.780 180.800,121.600 181.340,121.600 182.000 C 121.600 182.660,121.420 183.200,121.200 183.200 C 120.980 183.200,120.800 183.920,120.800 184.800 C 120.800 185.680,120.620 186.400,120.400 186.400 C 120.160 186.400,120.000 187.992,120.000 190.376 C 120.000 192.596,119.823 194.462,119.600 194.600 C 119.380 194.736,119.200 195.906,119.200 197.200 C 119.200 198.494,119.380 199.664,119.600 199.800 C 119.830 199.942,120.000 202.063,120.000 204.800 C 120.000 207.537,120.170 209.658,120.400 209.800 C 120.620 209.936,120.800 211.027,120.800 212.224 C 120.800 213.421,120.980 214.400,121.200 214.400 C 121.420 214.400,121.600 215.300,121.600 216.400 C 121.600 217.500,121.780 218.400,122.000 218.400 C 122.220 218.400,122.400 218.940,122.400 219.600 C 122.400 220.260,122.580 220.800,122.800 220.800 C 123.020 220.800,123.200 221.329,123.200 221.976 C 123.200 222.623,123.380 223.264,123.600 223.400 C 123.820 223.536,124.000 223.997,124.000 224.424 C 124.000 224.851,124.158 225.200,124.350 225.200 C 124.543 225.200,124.808 225.742,124.941 226.405 C 125.283 228.114,126.832 231.600,127.249 231.600 C 127.442 231.600,127.600 231.960,127.600 232.400 C 127.600 232.840,127.768 233.200,127.973 233.200 C 128.178 233.200,128.460 233.559,128.599 233.998 C 128.738 234.436,129.072 235.021,129.339 235.298 C 129.607 235.574,130.264 236.430,130.799 237.200 C 131.334 237.970,132.454 239.230,133.289 240.000 C 134.123 240.770,135.819 242.345,137.057 243.500 C 138.295 244.655,139.514 245.600,139.765 245.600 C 140.017 245.600,140.483 245.960,140.800 246.400 C 141.117 246.840,141.573 247.200,141.813 247.200 C 142.053 247.200,142.598 247.525,143.025 247.922 C 143.451 248.320,144.385 248.903,145.100 249.220 C 145.815 249.536,146.400 249.931,146.400 250.098 C 146.400 250.264,146.760 250.400,147.200 250.400 C 147.640 250.400,148.000 250.580,148.000 250.800 C 148.000 251.020,148.349 251.200,148.776 251.200 C 149.203 251.200,149.664 251.380,149.800 251.600 C 149.936 251.820,150.487 252.000,151.024 252.000 C 151.561 252.000,152.000 252.147,152.000 252.328 C 152.000 252.508,152.900 252.900,154.000 253.200 C 155.100 253.500,156.000 253.892,156.000 254.072 C 156.000 254.253,156.720 254.400,157.600 254.400 C 158.480 254.400,159.200 254.580,159.200 254.800 C 159.200 255.020,159.729 255.200,160.376 255.200 C 161.023 255.200,161.664 255.380,161.800 255.600 C 161.936 255.820,162.721 256.000,163.544 256.000 C 164.367 256.000,165.211 256.163,165.420 256.361 C 165.804 256.727,167.829 257.051,172.200 257.449 C 175.140 257.717,175.559 258.059,174.229 259.106 C 173.663 259.551,173.200 260.164,173.200 260.469 C 173.200 260.774,172.840 261.283,172.400 261.600 C 171.960 261.917,171.600 262.497,171.600 262.888 C 171.600 263.280,171.420 263.600,171.200 263.600 C 170.980 263.600,170.800 263.960,170.800 264.400 C 170.800 264.840,170.620 265.200,170.400 265.200 C 170.180 265.200,170.000 265.740,170.000 266.400 C 170.000 267.060,169.820 267.600,169.600 267.600 C 169.380 267.600,169.200 268.320,169.200 269.200 C 169.200 270.080,169.020 270.800,168.800 270.800 C 168.580 270.800,168.400 271.275,168.400 271.856 C 168.400 273.060,167.419 273.969,166.100 273.987 C 165.605 273.994,165.200 274.155,165.200 274.344 C 165.200 274.922,159.637 275.704,155.200 275.749 C 151.149 275.790,145.600 274.958,145.600 274.309 C 145.600 274.139,145.240 274.000,144.800 274.000 C 144.360 274.000,144.000 273.820,144.000 273.600 C 144.000 273.380,143.680 273.200,143.288 273.200 C 142.897 273.200,142.317 272.840,142.000 272.400 C 141.683 271.960,141.279 271.600,141.103 271.600 C 140.693 271.600,136.400 267.319,136.399 266.909 C 136.399 266.739,135.859 265.970,135.200 265.200 C 134.541 264.430,134.001 263.575,134.001 263.300 C 134.000 263.025,133.850 262.800,133.668 262.800 C 133.485 262.800,133.080 262.308,132.768 261.707 C 132.243 260.697,130.414 258.794,126.470 255.157 C 125.609 254.363,124.341 253.464,123.652 253.159 C 122.964 252.854,122.400 252.469,122.400 252.302 C 122.400 252.136,122.040 252.000,121.600 252.000 C 121.160 252.000,120.800 251.820,120.800 251.600 C 120.800 251.380,120.260 251.200,119.600 251.200 C 118.940 251.200,118.400 251.020,118.400 250.800 C 118.400 250.204,109.995 250.290,108.683 250.900 C 107.579 251.413,106.977 255.200,108.000 255.200 C 108.220 255.200,108.400 255.378,108.400 255.595 C 108.400 256.197,111.317 258.777,112.012 258.789 C 112.348 258.795,112.883 259.160,113.200 259.600 C 113.517 260.040,113.983 260.400,114.235 260.400 C 114.852 260.400,119.200 264.607,119.200 265.205 C 119.200 265.466,119.740 266.183,120.400 266.800 C 121.060 267.417,121.600 268.169,121.600 268.472 C 121.600 268.775,121.960 269.283,122.400 269.600 C 122.840 269.917,123.200 270.497,123.200 270.888 C 123.200 271.280,123.380 271.600,123.600 271.600 C 123.820 271.600,124.000 271.960,124.000 272.400 C 124.000 272.840,124.141 273.200,124.313 273.200 C 124.485 273.200,124.865 274.010,125.157 275.001 C 125.679 276.769,128.235 282.007,128.767 282.400 C 128.917 282.510,129.472 283.230,130.002 284.000 C 131.108 285.608,133.577 288.000,134.131 288.000 C 134.337 288.000,134.797 288.333,135.153 288.740 C 135.971 289.676,139.566 291.600,140.497 291.600 C 140.884 291.600,141.200 291.780,141.200 292.000 C 141.200 292.220,141.650 292.400,142.200 292.400 C 142.750 292.400,143.200 292.580,143.200 292.800 C 143.200 293.020,143.740 293.200,144.400 293.200 C 145.060 293.200,145.600 293.380,145.600 293.600 C 145.600 293.820,146.500 294.000,147.600 294.000 C 148.700 294.000,149.600 294.180,149.600 294.400 C 149.600 294.941,163.066 294.941,163.400 294.400 C 163.536 294.180,164.717 294.000,166.024 294.000 L 168.400 294.000 168.400 304.200 C 168.400 310.733,168.256 314.400,168.000 314.400 C 167.780 314.400,167.600 314.760,167.600 315.200 C 167.600 315.640,167.441 316.000,167.247 316.000 C 167.052 316.000,166.799 316.360,166.684 316.800 C 166.569 317.240,166.188 317.600,165.837 317.600 C 165.487 317.600,165.200 317.780,165.200 318.000 C 165.200 318.220,164.840 318.400,164.400 318.400 C 163.960 318.400,163.600 318.580,163.600 318.800 C 163.600 319.020,163.060 319.200,162.400 319.200 C 161.740 319.200,161.200 319.020,161.200 318.800 C 161.200 318.580,160.660 318.400,160.000 318.400 C 159.340 318.400,158.800 318.220,158.800 318.000 C 158.800 317.780,158.361 317.600,157.824 317.600 C 157.287 317.600,156.736 317.420,156.600 317.200 C 156.464 316.980,155.913 316.800,155.376 316.800 C 154.839 316.800,154.400 316.620,154.400 316.400 C 154.400 316.180,154.051 316.000,153.624 316.000 C 153.197 316.000,152.736 315.820,152.600 315.600 C 152.464 315.380,151.913 315.200,151.376 315.200 C 150.839 315.200,150.400 315.020,150.400 314.800 C 150.400 314.580,150.040 314.400,149.600 314.400 C 149.160 314.400,148.800 314.220,148.800 314.000 C 148.800 313.780,148.440 313.600,148.000 313.600 C 147.560 313.600,147.200 313.420,147.200 313.200 C 147.200 312.980,146.840 312.800,146.400 312.800 C 145.960 312.800,145.600 312.620,145.600 312.400 C 145.600 312.180,145.347 312.000,145.038 312.000 C 144.521 312.000,141.262 310.462,140.800 310.000 C 140.690 309.890,139.478 309.260,138.107 308.600 C 136.735 307.940,135.610 307.265,135.607 307.100 C 135.603 306.935,135.280 306.800,134.888 306.800 C 134.497 306.800,133.917 306.440,133.600 306.000 C 133.283 305.560,132.743 305.200,132.400 305.200 C 132.057 305.200,131.517 304.840,131.200 304.400 C 130.883 303.960,130.343 303.600,130.000 303.600 C 129.657 303.600,129.117 303.240,128.800 302.800 C 128.483 302.360,127.969 302.000,127.659 302.000 C 127.348 302.000,126.803 301.685,126.447 301.300 C 126.091 300.915,124.989 299.977,124.000 299.215 C 123.010 298.453,122.140 297.688,122.067 297.515 C 121.993 297.342,121.769 297.200,121.567 297.200 C 121.366 297.200,120.493 296.513,119.628 295.673 C 118.763 294.834,117.279 293.619,116.331 292.973 C 114.867 291.977,109.487 286.783,108.196 285.120 C 107.975 284.834,107.168 283.790,106.404 282.800 C 105.641 281.810,104.517 280.523,103.908 279.940 C 103.299 279.356,102.800 278.758,102.800 278.611 C 102.800 278.463,102.575 278.111,102.300 277.827 C 100.923 276.407,99.600 274.773,99.600 274.492 C 99.600 274.318,99.240 273.917,98.800 273.600 C 98.360 273.283,98.000 272.743,98.000 272.400 C 98.000 272.057,97.640 271.517,97.200 271.200 C 96.760 270.883,96.400 270.369,96.400 270.059 C 96.400 269.748,96.084 269.203,95.697 268.847 C 95.311 268.491,94.740 267.705,94.430 267.100 C 94.119 266.495,93.715 266.000,93.532 266.000 C 93.350 266.000,93.200 265.640,93.200 265.200 C 93.200 264.760,93.020 264.400,92.800 264.400 C 92.580 264.400,92.400 264.130,92.400 263.800 C 92.400 263.470,92.220 263.200,92.000 263.200 C 91.780 263.200,91.600 263.021,91.600 262.803 C 91.600 262.120,90.227 259.200,89.906 259.200 C 89.738 259.200,89.600 258.840,89.600 258.400 C 89.600 257.960,89.420 257.600,89.200 257.600 C 88.980 257.600,88.800 257.240,88.800 256.800 C 88.800 256.360,88.620 256.000,88.400 256.000 C 88.180 256.000,88.000 255.640,88.000 255.200 C 88.000 254.760,87.820 254.400,87.600 254.400 C 87.380 254.400,87.200 254.040,87.200 253.600 C 87.200 253.160,87.020 252.800,86.800 252.800 C 86.580 252.800,86.400 252.440,86.400 252.000 C 86.400 251.560,86.220 251.200,86.000 251.200 C 85.780 251.200,85.600 250.761,85.600 250.224 C 85.600 249.687,85.420 249.136,85.200 249.000 C 84.980 248.864,84.800 248.403,84.800 247.976 C 84.800 247.549,84.620 247.200,84.400 247.200 C 84.180 247.200,84.000 246.750,84.000 246.200 C 84.000 245.650,83.820 245.200,83.600 245.200 C 83.380 245.200,83.200 244.750,83.200 244.200 C 83.200 243.650,83.020 243.200,82.800 243.200 C 82.580 243.200,82.400 242.750,82.400 242.200 C 82.400 241.650,82.220 241.200,82.000 241.200 C 81.780 241.200,81.600 240.660,81.600 240.000 C 81.600 239.340,81.420 238.800,81.200 238.800 C 80.980 238.800,80.800 238.181,80.800 237.424 C 80.800 236.667,80.620 235.936,80.400 235.800 C 80.180 235.664,80.000 235.023,80.000 234.376 C 80.000 233.729,79.820 233.200,79.600 233.200 C 79.380 233.200,79.200 232.491,79.200 231.624 C 79.200 230.757,79.020 229.936,78.800 229.800 C 78.580 229.664,78.400 228.843,78.400 227.976 C 78.400 227.109,78.220 226.400,78.000 226.400 C 77.780 226.400,77.600 225.511,77.600 224.424 C 77.600 223.337,77.420 222.336,77.200 222.200 C 76.980 222.064,76.800 220.714,76.800 219.200 C 76.800 217.686,76.620 216.336,76.400 216.200 C 75.852 215.861,75.852 190.000,76.400 190.000 C 76.631 190.000,76.800 188.733,76.800 187.000 C 76.800 185.267,76.969 184.000,77.200 184.000 C 77.420 184.000,77.600 183.100,77.600 182.000 C 77.600 180.900,77.780 180.000,78.000 180.000 C 78.220 180.000,78.400 179.100,78.400 178.000 C 78.400 176.900,78.580 176.000,78.800 176.000 C 79.020 176.000,79.200 175.381,79.200 174.624 C 79.200 173.867,79.380 173.136,79.600 173.000 C 79.820 172.864,80.000 172.234,80.000 171.600 C 80.000 170.966,80.180 170.336,80.400 170.200 C 80.620 170.064,80.800 169.423,80.800 168.776 C 80.800 168.129,80.980 167.600,81.200 167.600 C 81.420 167.600,81.600 167.060,81.600 166.400 C 81.600 165.740,81.780 165.200,82.000 165.200 C 82.220 165.200,82.400 164.660,82.400 164.000 C 82.400 163.340,82.580 162.800,82.800 162.800 C 83.020 162.800,83.200 162.260,83.200 161.600 C 83.200 160.940,83.380 160.400,83.600 160.400 C 83.820 160.400,84.000 160.040,84.000 159.600 C 84.000 159.160,84.180 158.800,84.400 158.800 C 84.620 158.800,84.800 158.350,84.800 157.800 C 84.800 157.250,84.980 156.800,85.200 156.800 C 85.420 156.800,85.600 156.440,85.600 156.000 C 85.600 155.560,85.780 155.200,86.000 155.200 C 86.220 155.200,86.400 154.959,86.400 154.665 C 86.400 154.371,87.569 151.806,88.998 148.965 C 90.426 146.124,91.596 143.525,91.598 143.188 C 91.599 142.852,91.960 142.317,92.400 142.000 C 92.840 141.683,93.200 141.193,93.200 140.912 C 93.200 140.630,93.380 140.400,93.600 140.400 C 93.820 140.400,94.000 140.080,94.000 139.688 C 94.000 139.297,94.360 138.717,94.800 138.400 C 95.240 138.083,95.600 137.543,95.600 137.200 C 95.600 136.857,95.960 136.317,96.400 136.000 C 96.840 135.683,97.200 135.220,97.200 134.971 C 97.200 134.722,97.740 133.954,98.400 133.263 C 99.060 132.572,99.600 131.808,99.600 131.564 C 99.600 131.320,100.140 130.617,100.800 130.000 C 101.460 129.383,102.000 128.703,102.000 128.488 C 102.000 128.273,102.675 127.392,103.500 126.531 C 104.325 125.670,105.900 123.893,107.000 122.583 C 109.591 119.496,117.142 112.000,117.662 112.000 C 117.882 112.000,118.727 111.309,119.539 110.464 C 120.351 109.618,121.391 108.726,121.849 108.481 C 122.308 108.235,123.417 107.442,124.314 106.717 C 127.711 103.973,128.211 103.611,128.612 103.605 C 128.838 103.602,129.283 103.240,129.600 102.800 C 129.917 102.360,130.414 102.000,130.705 102.000 C 130.996 102.000,131.620 101.640,132.092 101.200 C 132.564 100.760,133.187 100.400,133.475 100.400 C 133.764 100.400,134.000 100.220,134.000 100.000 C 134.000 99.780,134.236 99.600,134.525 99.600 C 134.813 99.600,135.436 99.240,135.908 98.800 C 136.380 98.360,137.044 98.000,137.383 98.000 C 137.722 98.000,138.000 97.864,138.000 97.698 C 138.000 97.531,138.585 97.141,139.300 96.830 C 140.015 96.519,140.690 96.155,140.800 96.022 C 141.151 95.598,147.780 92.393,148.300 92.397 C 148.575 92.399,148.800 92.220,148.800 92.000 C 148.800 91.780,149.115 91.599,149.500 91.598 C 149.885 91.596,150.716 91.326,151.346 90.998 C 151.976 90.669,152.743 90.400,153.051 90.400 C 153.359 90.400,153.923 90.241,154.305 90.047 C 154.687 89.852,155.540 89.471,156.200 89.200 C 156.860 88.929,157.713 88.548,158.095 88.353 C 158.477 88.159,159.152 88.000,159.595 88.000 C 160.038 88.000,160.400 87.820,160.400 87.600 C 160.400 87.380,160.940 87.200,161.600 87.200 C 162.260 87.200,162.800 87.020,162.800 86.800 C 162.800 86.580,163.419 86.400,164.176 86.400 C 164.933 86.400,165.664 86.220,165.800 86.000 C 165.936 85.780,166.577 85.600,167.224 85.600 C 167.871 85.600,168.400 85.420,168.400 85.200 C 168.400 84.980,169.109 84.800,169.976 84.800 C 170.843 84.800,171.664 84.620,171.800 84.400 C 171.936 84.180,172.757 84.000,173.624 84.000 C 174.491 84.000,175.200 83.820,175.200 83.600 C 175.200 83.378,176.267 83.200,177.600 83.200 C 178.933 83.200,180.000 83.022,180.000 82.800 C 180.000 82.575,181.125 82.400,182.576 82.400 C 183.993 82.400,185.264 82.220,185.400 82.000 C 185.539 81.775,187.471 81.600,189.824 81.600 C 192.341 81.600,194.000 81.441,194.000 81.200 C 194.000 80.951,196.267 80.800,200.000 80.800 C 203.733 80.800,206.000 80.951,206.000 81.200 " stroke="none" fill="#040404" fill-rule="evenodd"></path><path id="path1" d="" stroke="none" fill="#080404" fill-rule="evenodd"></path><path id="path2" d="" stroke="none" fill="#080404" fill-rule="evenodd"></path><path id="path3" d="" stroke="none" fill="#080404" fill-rule="evenodd"></path><path id="path4" d="" stroke="none" fill="#080404" fill-rule="evenodd"></path></g></svg>