<svg id="svg" version="1.1" xmlns="http://www.w3.org/2000/svg" xmlns:xlink="http://www.w3.org/1999/xlink" width="400" height="400" viewBox="0, 0, 400,400"><g id="svgg"><path id="path0" d="M20.402 261.900 C 20.404 269.750,20.542 271.141,21.695 275.000 C 23.813 282.090,31.186 289.581,38.000 291.568 C 38.990 291.857,40.340 292.297,41.000 292.546 C 41.887 292.882,83.339 293.000,200.000 293.000 C 316.661 293.000,358.113 292.882,359.000 292.546 C 359.660 292.297,361.010 291.852,362.000 291.558 C 373.645 288.098,379.600 278.210,379.600 262.334 L 379.600 253.600 200.000 253.600 L 20.400 253.600 20.402 261.900 M206.710 273.170 C 206.794 278.158,206.698 279.818,206.310 280.064 C 205.720 280.438,194.778 280.520,193.833 280.157 C 193.169 279.902,192.836 267.298,193.476 266.657 C 193.628 266.505,196.643 266.430,200.176 266.490 L 206.600 266.600 206.710 273.170 M144.000 308.000 C 144.000 308.440,143.820 308.800,143.600 308.800 C 143.380 308.800,143.200 309.160,143.200 309.600 C 143.200 310.040,143.020 310.400,142.800 310.400 C 142.580 310.400,142.400 310.760,142.400 311.200 C 142.400 311.640,142.220 312.000,142.000 312.000 C 141.780 312.000,141.600 312.360,141.600 312.800 C 141.600 313.240,141.420 313.600,141.200 313.600 C 140.980 313.600,140.800 313.960,140.800 314.400 C 140.800 314.840,140.620 315.200,140.400 315.200 C 140.180 315.200,140.000 315.398,140.000 315.640 C 140.000 316.257,128.305 339.770,127.917 339.933 C 127.743 340.007,127.600 340.412,127.600 340.833 C 127.600 341.255,127.420 341.600,127.200 341.600 C 126.980 341.600,126.800 341.960,126.800 342.400 C 126.800 342.840,126.620 343.200,126.400 343.200 C 126.180 343.200,126.000 343.560,126.000 344.000 C 126.000 344.440,125.820 344.800,125.600 344.800 C 125.380 344.800,125.200 345.160,125.200 345.600 C 125.200 346.040,125.020 346.400,124.800 346.400 C 124.580 346.400,124.400 346.760,124.400 347.200 C 124.400 347.640,124.220 348.000,124.000 348.000 C 123.780 348.000,123.600 348.360,123.600 348.800 C 123.600 349.240,123.420 349.600,123.200 349.600 C 122.980 349.600,122.800 349.817,122.800 350.082 C 122.800 350.348,121.818 352.486,120.618 354.834 C 119.418 357.182,118.548 359.215,118.685 359.352 C 119.043 359.710,281.119 359.659,281.328 359.300 C 281.533 358.948,276.389 348.263,275.919 348.067 C 275.744 347.993,275.600 347.588,275.600 347.167 C 275.600 346.745,275.420 346.400,275.200 346.400 C 274.980 346.400,274.800 346.040,274.800 345.600 C 274.800 345.160,274.620 344.800,274.400 344.800 C 274.180 344.800,274.000 344.440,274.000 344.000 C 274.000 343.560,273.820 343.200,273.600 343.200 C 273.380 343.200,273.200 342.840,273.200 342.400 C 273.200 341.960,273.020 341.600,272.800 341.600 C 272.580 341.600,272.400 341.240,272.400 340.800 C 272.400 340.360,272.220 340.000,272.000 340.000 C 271.780 340.000,271.600 339.655,271.600 339.233 C 271.600 338.812,271.462 338.407,271.293 338.333 C 271.004 338.208,269.446 335.112,262.070 320.000 C 260.405 316.590,258.899 313.740,258.722 313.667 C 258.545 313.593,258.400 313.188,258.400 312.767 C 258.400 312.345,258.220 312.000,258.000 312.000 C 257.780 312.000,257.600 311.640,257.600 311.200 C 257.600 310.760,257.420 310.400,257.200 310.400 C 256.980 310.400,256.800 310.166,256.800 309.880 C 256.800 309.594,256.575 308.875,256.300 308.283 L 255.800 307.206 199.900 307.203 C 144.266 307.200,144.000 307.204,144.000 308.000 M63.766 374.433 C 59.489 376.510,59.256 382.345,63.329 385.363 L 64.459 386.200 200.000 386.200 L 335.541 386.200 336.671 385.363 C 340.795 382.307,340.511 376.469,336.138 374.413 C 333.440 373.145,66.379 373.165,63.766 374.433 " stroke="none" fill="#e6e6e6" fill-rule="evenodd"></path><path id="path1" d="M76.723 98.900 C 74.458 101.595,72.244 104.233,71.803 104.762 C 71.361 105.291,70.124 106.731,69.054 107.962 C 67.984 109.193,66.833 110.612,66.497 111.116 C 66.161 111.620,65.057 112.520,64.043 113.116 L 62.200 114.200 50.371 114.200 L 38.541 114.200 36.935 113.137 C 36.052 112.553,33.097 109.403,30.367 106.137 C 27.637 102.872,24.990 99.750,24.484 99.200 C 23.978 98.650,22.987 97.441,22.282 96.512 C 19.892 93.366,20.000 91.955,20.000 126.200 C 20.000 153.956,20.070 157.600,20.605 157.600 C 20.938 157.600,22.513 156.976,24.105 156.214 C 30.121 153.335,36.920 151.436,43.600 150.769 C 45.690 150.560,47.642 150.301,47.938 150.193 C 49.704 149.547,62.828 151.213,68.000 152.739 C 103.492 163.217,122.409 201.540,108.962 235.719 C 108.200 237.655,107.683 239.410,107.812 239.619 C 108.090 240.069,144.782 240.142,145.417 239.694 C 145.646 239.532,146.085 238.590,146.392 237.600 C 148.432 231.023,148.668 230.843,162.727 225.200 L 173.190 221.000 173.195 213.129 L 173.200 205.259 171.939 204.629 C 171.245 204.283,170.529 204.000,170.349 204.000 C 170.168 204.000,168.841 203.460,167.400 202.800 C 165.959 202.140,164.550 201.600,164.270 201.600 C 163.989 201.600,163.589 201.447,163.380 201.260 C 163.171 201.073,160.570 199.961,157.600 198.788 C 148.284 195.110,148.939 195.896,144.683 183.279 C 139.908 169.121,139.678 170.875,148.058 157.500 C 153.244 149.222,154.114 147.769,154.124 147.376 C 154.133 146.985,151.373 142.711,150.161 141.238 C 149.872 140.887,148.617 139.194,147.372 137.475 C 145.664 135.116,144.948 134.416,144.454 134.621 C 144.094 134.771,142.360 135.244,140.600 135.672 C 138.840 136.101,136.770 136.611,136.000 136.806 C 135.230 137.001,133.790 137.342,132.800 137.564 C 131.810 137.785,129.222 138.424,127.049 138.983 C 118.996 141.055,119.275 141.172,102.402 128.633 C 97.609 125.071,97.866 126.053,96.371 105.600 C 96.121 102.190,95.867 99.220,95.806 99.000 C 95.716 98.672,81.979 94.000,81.106 94.000 C 80.960 94.000,78.988 96.205,76.723 98.900 M196.900 266.697 C 198.605 266.772,201.395 266.772,203.100 266.697 C 204.805 266.622,203.410 266.561,200.000 266.561 C 196.590 266.561,195.195 266.622,196.900 266.697 M193.276 273.276 C 193.234 276.728,193.335 279.637,193.500 279.739 C 193.665 279.842,193.753 278.008,193.695 275.663 C 193.500 267.798,193.352 266.953,193.276 273.276 M206.399 273.481 C 206.289 277.046,206.340 279.822,206.511 279.650 C 206.682 279.479,206.771 276.562,206.710 273.169 L 206.598 267.000 206.399 273.481 M42.100 293.076 C 42.485 293.176,43.115 293.176,43.500 293.076 C 43.885 292.975,43.570 292.893,42.800 292.893 C 42.030 292.893,41.715 292.975,42.100 293.076 M356.500 293.076 C 356.885 293.176,357.515 293.176,357.900 293.076 C 358.285 292.975,357.970 292.893,357.200 292.893 C 356.430 292.893,356.115 292.975,356.500 293.076 M123.100 293.500 C 165.395 293.556,234.605 293.556,276.900 293.500 C 319.195 293.444,284.590 293.398,200.000 293.398 C 115.410 293.398,80.805 293.444,123.100 293.500 M143.784 307.225 C 143.639 307.461,143.628 307.761,143.760 307.893 C 143.892 308.025,144.000 307.923,144.000 307.667 C 144.000 307.043,255.827 306.987,256.137 307.610 C 256.249 307.836,256.294 307.791,256.237 307.510 C 256.099 306.831,144.203 306.547,143.784 307.225 M132.900 373.500 C 169.805 373.556,230.195 373.556,267.100 373.500 C 304.005 373.444,273.810 373.398,200.000 373.398 C 126.190 373.398,95.995 373.444,132.900 373.500 M60.101 380.200 C 60.105 381.080,60.187 381.393,60.283 380.895 C 60.379 380.398,60.375 379.678,60.275 379.295 C 60.175 378.913,60.096 379.320,60.101 380.200 " stroke="none" fill="#fbb03b" fill-rule="evenodd"></path><path id="path2" d="M37.400 0.292 C 36.520 0.381,35.629 0.621,35.420 0.827 C 35.211 1.032,34.547 1.200,33.944 1.200 C 33.341 1.200,32.736 1.380,32.600 1.600 C 32.464 1.820,32.003 2.000,31.576 2.000 C 31.149 2.000,30.800 2.180,30.800 2.400 C 30.800 2.620,30.440 2.800,30.000 2.800 C 29.560 2.800,29.200 2.980,29.200 3.200 C 29.200 3.420,28.840 3.600,28.400 3.600 C 27.960 3.600,27.600 3.746,27.600 3.925 C 27.600 4.104,26.970 4.498,26.200 4.800 C 25.430 5.102,24.800 5.496,24.800 5.675 C 24.800 5.854,24.524 6.000,24.187 6.000 C 23.849 6.000,22.975 6.585,22.245 7.300 C 21.514 8.015,20.490 8.870,19.968 9.200 C 18.201 10.319,12.800 16.255,12.800 17.078 C 12.800 17.365,12.620 17.600,12.400 17.600 C 12.180 17.600,12.000 17.945,12.000 18.367 C 12.000 18.788,11.851 19.193,11.669 19.267 C 11.097 19.497,8.400 25.262,8.400 26.254 C 8.400 26.774,8.220 27.200,8.000 27.200 C 7.780 27.200,7.600 27.830,7.600 28.600 C 7.600 29.370,7.420 30.000,7.200 30.000 C 6.980 30.000,6.800 30.979,6.800 32.176 C 6.800 33.373,6.620 34.464,6.400 34.600 C 5.845 34.943,5.845 271.857,6.400 272.200 C 6.620 272.336,6.800 273.326,6.800 274.400 C 6.800 275.474,6.980 276.464,7.200 276.600 C 7.420 276.736,7.600 277.377,7.600 278.024 C 7.600 278.671,7.780 279.200,8.000 279.200 C 8.220 279.200,8.400 279.684,8.400 280.276 C 8.400 281.360,11.730 288.541,12.694 289.535 C 12.979 289.829,13.704 290.724,14.306 291.525 C 15.865 293.599,21.102 298.800,21.633 298.800 C 21.878 298.800,22.583 299.340,23.200 300.000 C 23.817 300.660,24.609 301.200,24.960 301.200 C 25.312 301.200,25.600 301.346,25.600 301.525 C 25.600 301.704,26.230 302.098,27.000 302.400 C 27.770 302.702,28.400 303.096,28.400 303.275 C 28.400 303.454,28.760 303.600,29.200 303.600 C 29.640 303.600,30.000 303.780,30.000 304.000 C 30.000 304.220,30.360 304.400,30.800 304.400 C 31.240 304.400,31.600 304.580,31.600 304.800 C 31.600 305.020,32.140 305.200,32.800 305.200 C 33.460 305.200,34.000 305.360,34.000 305.556 C 34.000 305.931,35.669 306.299,39.000 306.658 C 40.100 306.777,41.171 307.037,41.380 307.237 C 41.603 307.450,59.518 307.600,84.680 307.600 C 113.027 307.600,127.600 307.736,127.600 308.000 C 127.600 308.220,127.420 308.400,127.200 308.400 C 126.980 308.400,126.800 308.581,126.800 308.802 C 126.800 309.023,126.350 310.137,125.800 311.277 C 125.250 312.417,124.800 313.586,124.800 313.875 C 124.800 314.164,124.620 314.400,124.400 314.400 C 124.180 314.400,124.000 314.760,124.000 315.200 C 124.000 315.640,123.820 316.000,123.600 316.000 C 123.380 316.000,123.200 316.360,123.200 316.800 C 123.200 317.240,123.020 317.600,122.800 317.600 C 122.580 317.600,122.400 317.960,122.400 318.400 C 122.400 318.840,122.220 319.200,122.000 319.200 C 121.780 319.200,121.600 319.560,121.600 320.000 C 121.600 320.440,121.420 320.800,121.200 320.800 C 120.980 320.800,120.800 321.160,120.800 321.600 C 120.800 322.040,120.620 322.400,120.400 322.400 C 120.180 322.400,120.000 322.760,120.000 323.200 C 120.000 323.640,119.820 324.000,119.600 324.000 C 119.380 324.000,119.200 324.360,119.200 324.800 C 119.200 325.240,119.054 325.600,118.875 325.600 C 118.696 325.600,118.302 326.230,118.000 327.000 C 117.698 327.770,117.304 328.400,117.125 328.400 C 116.946 328.400,116.800 328.760,116.800 329.200 C 116.800 329.640,116.620 330.000,116.400 330.000 C 116.180 330.000,116.000 330.360,116.000 330.800 C 116.000 331.240,115.820 331.600,115.600 331.600 C 115.380 331.600,115.200 331.960,115.200 332.400 C 115.200 332.840,115.020 333.200,114.800 333.200 C 114.580 333.200,114.400 333.560,114.400 334.000 C 114.400 334.440,114.220 334.800,114.000 334.800 C 113.780 334.800,113.600 335.160,113.600 335.600 C 113.600 336.040,113.420 336.400,113.200 336.400 C 112.980 336.400,112.800 336.760,112.800 337.200 C 112.800 337.640,112.620 338.000,112.400 338.000 C 112.180 338.000,112.000 338.360,112.000 338.800 C 112.000 339.240,111.820 339.600,111.600 339.600 C 111.380 339.600,111.200 339.960,111.200 340.400 C 111.200 340.840,111.020 341.200,110.800 341.200 C 110.580 341.200,110.400 341.545,110.400 341.967 C 110.400 342.388,110.265 342.793,110.100 342.867 C 109.689 343.049,108.400 345.890,108.400 346.614 C 108.400 346.936,108.220 347.200,108.000 347.200 C 107.780 347.200,107.600 347.560,107.600 348.000 C 107.600 348.440,107.420 348.800,107.200 348.800 C 106.980 348.800,106.800 349.160,106.800 349.600 C 106.800 350.040,106.620 350.400,106.400 350.400 C 106.180 350.400,106.000 350.760,106.000 351.200 C 106.000 351.640,105.820 352.000,105.600 352.000 C 105.380 352.000,105.200 352.360,105.200 352.800 C 105.200 353.240,105.020 353.600,104.800 353.600 C 104.580 353.600,104.400 353.960,104.400 354.400 C 104.400 354.840,104.220 355.200,104.000 355.200 C 103.780 355.200,103.600 355.560,103.600 356.000 C 103.600 356.440,103.420 356.800,103.200 356.800 C 102.980 356.800,102.800 357.160,102.800 357.600 C 102.800 358.040,102.755 358.439,102.700 358.486 C 102.645 358.534,94.230 358.698,84.000 358.850 C 65.545 359.125,61.351 359.338,60.620 360.037 C 60.411 360.237,59.826 360.400,59.320 360.400 C 58.814 360.400,58.400 360.580,58.400 360.800 C 58.400 361.020,58.040 361.200,57.600 361.200 C 57.160 361.200,56.800 361.380,56.800 361.600 C 56.800 361.820,56.522 362.000,56.182 362.000 C 55.842 362.000,55.114 362.450,54.564 363.000 C 54.014 363.550,53.393 364.000,53.185 364.000 C 52.664 364.000,50.400 366.414,50.400 366.971 C 50.400 367.220,50.040 367.683,49.600 368.000 C 49.160 368.317,48.800 368.897,48.800 369.288 C 48.800 369.680,48.620 370.000,48.400 370.000 C 48.180 370.000,48.000 370.360,48.000 370.800 C 48.000 371.240,47.820 371.600,47.600 371.600 C 47.380 371.600,47.200 372.140,47.200 372.800 C 47.200 373.460,47.020 374.000,46.800 374.000 C 46.580 374.000,46.400 374.799,46.400 375.776 C 46.400 376.753,46.220 377.664,46.000 377.800 C 45.478 378.123,45.478 382.400,46.000 382.400 C 46.220 382.400,46.400 383.300,46.400 384.400 C 46.400 385.500,46.580 386.400,46.800 386.400 C 47.020 386.400,47.200 386.940,47.200 387.600 C 47.200 388.260,47.336 388.800,47.502 388.800 C 47.669 388.800,48.062 389.385,48.375 390.100 C 48.689 390.815,49.453 391.877,50.073 392.460 C 50.693 393.044,51.200 393.778,51.200 394.093 C 51.200 394.407,51.695 394.920,52.300 395.232 C 52.905 395.545,53.877 396.295,54.460 396.900 C 55.044 397.505,55.809 398.000,56.160 398.000 C 56.512 398.000,56.800 398.180,56.800 398.400 C 56.800 398.620,57.145 398.800,57.567 398.800 C 57.988 398.800,58.408 399.025,58.500 399.300 C 58.633 399.699,87.289 399.800,200.000 399.800 C 312.711 399.800,341.367 399.699,341.500 399.300 C 341.592 399.025,342.012 398.800,342.433 398.800 C 342.855 398.800,343.200 398.620,343.200 398.400 C 343.200 398.180,343.488 398.000,343.840 398.000 C 344.191 398.000,344.956 397.505,345.540 396.900 C 346.123 396.295,347.095 395.545,347.700 395.232 C 348.305 394.920,348.800 394.407,348.800 394.093 C 348.800 393.778,349.307 393.044,349.927 392.460 C 350.547 391.877,351.311 390.815,351.625 390.100 C 351.938 389.385,352.331 388.800,352.498 388.800 C 352.664 388.800,352.800 388.260,352.800 387.600 C 352.800 386.940,352.980 386.400,353.200 386.400 C 353.420 386.400,353.600 385.500,353.600 384.400 C 353.600 383.300,353.780 382.400,354.000 382.400 C 354.522 382.400,354.522 378.123,354.000 377.800 C 353.780 377.664,353.600 376.753,353.600 375.776 C 353.600 374.799,353.420 374.000,353.200 374.000 C 352.980 374.000,352.800 373.460,352.800 372.800 C 352.800 372.140,352.620 371.600,352.400 371.600 C 352.180 371.600,352.000 371.240,352.000 370.800 C 352.000 370.360,351.820 370.000,351.600 370.000 C 351.380 370.000,351.200 369.680,351.200 369.288 C 351.200 368.897,350.840 368.317,350.400 368.000 C 349.960 367.683,349.600 367.220,349.600 366.971 C 349.600 366.414,347.336 364.000,346.815 364.000 C 346.607 364.000,345.986 363.550,345.436 363.000 C 344.886 362.450,344.158 362.000,343.818 362.000 C 343.478 362.000,343.200 361.820,343.200 361.600 C 343.200 361.380,342.840 361.200,342.400 361.200 C 341.960 361.200,341.600 361.020,341.600 360.800 C 341.600 360.580,341.186 360.400,340.680 360.400 C 340.174 360.400,339.589 360.237,339.380 360.037 C 338.649 359.338,334.455 359.125,316.000 358.850 C 305.770 358.698,297.355 358.534,297.300 358.486 C 297.245 358.439,297.200 358.040,297.200 357.600 C 297.200 357.160,297.020 356.800,296.800 356.800 C 296.580 356.800,296.400 356.440,296.400 356.000 C 296.400 355.560,296.220 355.200,296.000 355.200 C 295.780 355.200,295.600 354.840,295.600 354.400 C 295.600 353.960,295.420 353.600,295.200 353.600 C 294.980 353.600,294.800 353.240,294.800 352.800 C 294.800 352.360,294.620 352.000,294.400 352.000 C 294.180 352.000,294.000 351.640,294.000 351.200 C 294.000 350.760,293.820 350.400,293.600 350.400 C 293.380 350.400,293.200 350.040,293.200 349.600 C 293.200 349.160,293.020 348.800,292.800 348.800 C 292.580 348.800,292.400 348.440,292.400 348.000 C 292.400 347.560,292.220 347.200,292.000 347.200 C 291.780 347.200,291.600 346.931,291.600 346.603 C 291.600 345.769,290.277 342.800,289.906 342.800 C 289.738 342.800,289.600 342.440,289.600 342.000 C 289.600 341.560,289.420 341.200,289.200 341.200 C 288.980 341.200,288.800 340.840,288.800 340.400 C 288.800 339.960,288.620 339.600,288.400 339.600 C 288.180 339.600,288.000 339.240,288.000 338.800 C 288.000 338.360,287.820 338.000,287.600 338.000 C 287.380 338.000,287.200 337.640,287.200 337.200 C 287.200 336.760,287.020 336.400,286.800 336.400 C 286.580 336.400,286.400 336.040,286.400 335.600 C 286.400 335.160,286.220 334.800,286.000 334.800 C 285.780 334.800,285.600 334.440,285.600 334.000 C 285.600 333.560,285.420 333.200,285.200 333.200 C 284.980 333.200,284.800 332.840,284.800 332.400 C 284.800 331.960,284.620 331.600,284.400 331.600 C 284.180 331.600,284.000 331.240,284.000 330.800 C 284.000 330.360,283.820 330.000,283.600 330.000 C 283.380 330.000,283.200 329.640,283.200 329.200 C 283.200 328.760,283.054 328.400,282.875 328.400 C 282.696 328.400,282.302 327.770,282.000 327.000 C 281.698 326.230,281.304 325.600,281.125 325.600 C 280.946 325.600,280.800 325.240,280.800 324.800 C 280.800 324.360,280.620 324.000,280.400 324.000 C 280.180 324.000,280.000 323.640,280.000 323.200 C 280.000 322.760,279.820 322.400,279.600 322.400 C 279.380 322.400,279.200 322.040,279.200 321.600 C 279.200 321.160,279.020 320.800,278.800 320.800 C 278.580 320.800,278.400 320.440,278.400 320.000 C 278.400 319.560,278.220 319.200,278.000 319.200 C 277.780 319.200,277.600 318.840,277.600 318.400 C 277.600 317.960,277.420 317.600,277.200 317.600 C 276.980 317.600,276.800 317.240,276.800 316.800 C 276.800 316.360,276.620 316.000,276.400 316.000 C 276.180 316.000,276.000 315.640,276.000 315.200 C 276.000 314.760,275.820 314.400,275.600 314.400 C 275.380 314.400,275.200 314.134,275.200 313.809 C 275.200 313.094,273.123 308.654,272.700 308.467 C 271.025 307.722,277.042 307.600,315.320 307.600 C 340.482 307.600,358.397 307.450,358.620 307.237 C 358.829 307.037,359.900 306.777,361.000 306.658 C 364.331 306.299,366.000 305.931,366.000 305.556 C 366.000 305.360,366.540 305.200,367.200 305.200 C 367.860 305.200,368.400 305.020,368.400 304.800 C 368.400 304.580,368.760 304.400,369.200 304.400 C 369.640 304.400,370.000 304.220,370.000 304.000 C 370.000 303.780,370.345 303.600,370.767 303.600 C 371.188 303.600,371.593 303.465,371.667 303.300 C 371.740 303.135,372.700 302.552,373.800 302.004 C 374.900 301.456,376.277 300.511,376.860 299.904 C 377.444 299.297,378.126 298.800,378.378 298.800 C 379.777 298.800,387.292 290.060,389.179 286.237 C 389.949 284.677,390.714 283.341,390.880 283.270 C 391.045 283.198,391.298 282.253,391.442 281.170 C 391.585 280.086,391.860 279.200,392.052 279.200 C 392.243 279.200,392.400 278.671,392.400 278.024 C 392.400 277.377,392.580 276.736,392.800 276.600 C 393.020 276.464,393.200 275.474,393.200 274.400 C 393.200 273.326,393.380 272.336,393.600 272.200 C 394.155 271.857,394.155 34.943,393.600 34.600 C 393.380 34.464,393.200 33.373,393.200 32.176 C 393.200 30.979,393.020 30.000,392.800 30.000 C 392.580 30.000,392.400 29.370,392.400 28.600 C 392.400 27.830,392.243 27.200,392.051 27.200 C 391.859 27.200,391.588 26.486,391.448 25.613 C 391.309 24.740,390.656 23.112,389.997 21.996 C 389.339 20.879,388.800 19.793,388.800 19.582 C 388.800 19.372,388.620 19.200,388.400 19.200 C 388.180 19.200,388.000 18.840,388.000 18.400 C 388.000 17.960,387.820 17.600,387.600 17.600 C 387.380 17.600,387.200 17.365,387.200 17.078 C 387.200 16.255,381.799 10.319,380.032 9.200 C 379.510 8.870,378.486 8.015,377.755 7.300 C 377.025 6.585,376.151 6.000,375.813 6.000 C 375.476 6.000,375.200 5.854,375.200 5.675 C 375.200 5.496,374.570 5.102,373.800 4.800 C 373.030 4.498,372.400 4.104,372.400 3.925 C 372.400 3.746,372.040 3.600,371.600 3.600 C 371.160 3.600,370.800 3.420,370.800 3.200 C 370.800 2.980,370.440 2.800,370.000 2.800 C 369.560 2.800,369.200 2.620,369.200 2.400 C 369.200 2.180,368.851 2.000,368.424 2.000 C 367.997 2.000,367.536 1.820,367.400 1.600 C 367.264 1.380,366.659 1.200,366.056 1.200 C 365.453 1.200,364.735 0.975,364.460 0.700 C 363.985 0.225,42.047 -0.177,37.400 0.292 M356.284 13.638 C 361.482 14.368,367.033 16.682,369.800 19.273 C 370.460 19.891,371.127 20.397,371.283 20.398 C 372.604 20.407,377.329 28.024,378.874 32.635 L 379.800 35.400 379.800 137.600 L 379.800 239.800 272.000 239.902 C 212.710 239.959,163.930 239.900,163.600 239.771 C 163.236 239.629,164.339 239.002,166.400 238.179 C 168.270 237.432,170.113 236.636,170.495 236.410 C 170.877 236.185,171.374 236.000,171.599 236.000 C 171.824 236.000,172.817 235.640,173.804 235.200 C 174.792 234.760,176.408 234.040,177.396 233.600 C 178.383 233.160,179.339 232.800,179.521 232.800 C 181.347 232.800,185.363 229.719,186.233 227.651 C 186.981 225.871,187.062 201.168,186.327 198.715 C 185.507 195.978,183.797 194.971,171.933 190.242 C 157.988 184.683,159.666 186.034,157.175 178.362 L 155.075 171.894 155.838 170.449 C 156.551 169.097,163.377 158.019,166.864 152.552 C 170.415 146.987,170.204 146.042,163.295 136.600 C 162.007 134.840,159.464 131.330,157.643 128.800 C 151.044 119.631,150.431 119.355,141.658 121.584 C 126.872 125.341,122.305 126.384,121.856 126.108 C 115.953 122.487,110.814 118.147,110.631 116.628 C 110.524 115.733,110.076 109.833,109.638 103.518 C 108.546 87.810,109.553 89.139,95.159 84.422 C 89.571 82.591,83.998 80.757,82.773 80.346 C 81.549 79.936,79.659 79.607,78.573 79.616 C 75.454 79.642,75.286 79.798,64.615 92.600 C 62.231 95.460,59.678 98.475,58.941 99.300 L 57.602 100.800 50.447 100.800 L 43.292 100.800 37.546 93.938 C 34.386 90.164,30.720 85.774,29.400 84.182 C 26.493 80.676,25.266 79.874,22.400 79.606 L 20.200 79.400 20.200 57.400 C 20.200 35.462,20.203 35.392,21.126 32.635 C 24.668 22.063,32.269 15.515,43.000 13.793 C 47.300 13.103,351.403 12.952,356.284 13.638 M127.284 31.548 C 126.702 31.908,113.895 70.350,114.142 70.994 C 114.403 71.673,125.928 75.441,126.339 74.981 C 126.689 74.589,139.026 37.611,139.266 36.232 C 139.381 35.576,138.609 35.193,133.959 33.593 C 130.967 32.563,128.349 31.615,128.140 31.487 C 127.932 31.358,127.547 31.386,127.284 31.548 M206.977 33.717 C 206.868 34.001,206.828 37.016,206.889 40.417 L 207.000 46.600 213.400 46.600 L 219.800 46.600 219.911 40.230 C 219.994 35.402,219.897 33.782,219.511 33.536 C 218.606 32.962,207.203 33.126,206.977 33.717 M233.680 33.680 C 233.174 34.186,232.970 44.936,233.443 46.167 C 233.663 46.741,239.621 46.800,296.843 46.800 L 360.000 46.800 360.000 40.243 C 360.000 34.632,359.909 33.651,359.367 33.443 C 358.050 32.937,234.189 33.171,233.680 33.680 M94.922 42.428 C 83.967 53.557,83.966 53.494,95.557 64.997 L 102.003 71.393 106.679 66.717 L 111.355 62.041 107.277 57.898 C 102.359 52.900,102.359 53.857,107.277 48.923 L 111.353 44.833 106.799 40.216 C 104.294 37.677,102.109 35.600,101.944 35.600 C 101.779 35.600,98.619 38.673,94.922 42.428 M146.693 39.907 C 141.525 45.091,141.567 44.321,146.200 48.969 C 148.290 51.066,150.000 53.014,150.000 53.299 C 150.000 53.583,148.290 55.519,146.200 57.600 C 144.110 59.681,142.400 61.618,142.400 61.903 C 142.400 62.429,150.952 71.200,151.464 71.200 C 151.977 71.200,164.058 59.019,165.264 57.286 C 166.953 54.861,166.953 51.939,165.264 49.514 C 163.921 47.584,151.949 35.600,151.364 35.600 C 151.156 35.600,149.054 37.538,146.693 39.907 M180.268 60.266 C 179.634 60.900,179.974 73.105,180.633 73.357 C 181.597 73.727,358.926 73.635,359.511 73.264 C 359.897 73.018,359.994 71.398,359.911 66.570 L 359.800 60.200 270.168 60.099 C 220.870 60.044,180.415 60.119,180.268 60.266 M180.000 93.400 L 180.000 100.000 236.600 100.000 L 293.200 100.000 293.200 93.400 L 293.200 86.800 236.600 86.800 L 180.000 86.800 180.000 93.400 M88.533 96.300 C 92.473 97.565,95.746 98.780,95.806 99.000 C 95.867 99.220,96.121 102.190,96.371 105.600 C 97.866 126.053,97.609 125.071,102.402 128.633 C 119.275 141.172,118.996 141.055,127.049 138.983 C 129.222 138.424,131.810 137.785,132.800 137.564 C 133.790 137.342,135.230 137.001,136.000 136.806 C 136.770 136.611,138.840 136.101,140.600 135.672 C 142.360 135.244,144.094 134.771,144.454 134.621 C 144.948 134.416,145.664 135.116,147.372 137.475 C 148.617 139.194,149.872 140.887,150.161 141.238 C 151.373 142.711,154.133 146.985,154.124 147.376 C 154.114 147.769,153.244 149.222,148.058 157.500 C 139.678 170.875,139.908 169.121,144.683 183.279 C 148.939 195.896,148.284 195.110,157.600 198.788 C 160.570 199.961,163.171 201.073,163.380 201.260 C 163.589 201.447,163.989 201.600,164.270 201.600 C 164.550 201.600,165.959 202.140,167.400 202.800 C 168.841 203.460,170.168 204.000,170.349 204.000 C 170.529 204.000,171.245 204.283,171.939 204.629 L 173.200 205.259 173.195 213.129 L 173.190 221.000 162.727 225.200 C 148.668 230.843,148.432 231.023,146.392 237.600 C 146.085 238.590,145.646 239.532,145.417 239.694 C 144.782 240.142,108.090 240.069,107.812 239.619 C 107.683 239.410,108.200 237.655,108.962 235.719 C 122.409 201.540,103.492 163.217,68.000 152.739 C 62.828 151.213,49.704 149.547,47.938 150.193 C 47.642 150.301,45.690 150.560,43.600 150.769 C 36.920 151.436,30.121 153.335,24.105 156.214 C 22.513 156.976,20.938 157.600,20.605 157.600 C 20.070 157.600,20.000 153.956,20.000 126.200 C 20.000 91.955,19.892 93.366,22.282 96.512 C 22.987 97.441,23.978 98.650,24.484 99.200 C 24.990 99.750,27.637 102.872,30.367 106.137 C 33.097 109.403,36.052 112.553,36.935 113.137 L 38.541 114.200 50.371 114.200 L 62.200 114.200 64.043 113.116 C 65.057 112.520,66.161 111.620,66.497 111.116 C 66.833 110.612,67.984 109.193,69.054 107.962 C 70.124 106.731,71.361 105.291,71.803 104.762 C 77.885 97.475,80.889 94.000,81.106 94.000 C 81.251 94.000,84.593 95.035,88.533 96.300 M180.268 113.465 C 179.420 114.313,180.001 126.385,180.900 126.602 C 181.395 126.721,206.820 126.770,237.400 126.710 L 293.000 126.600 293.000 120.000 L 293.000 113.400 236.768 113.299 C 205.840 113.243,180.415 113.318,180.268 113.465 M306.800 172.920 C 306.800 197.991,306.686 205.954,306.320 206.320 C 305.603 207.037,294.253 206.987,293.654 206.265 C 293.348 205.896,293.177 200.685,293.105 189.565 L 293.000 173.400 287.400 173.285 C 284.320 173.222,281.397 173.270,280.904 173.392 L 280.009 173.613 279.904 190.107 L 279.800 206.600 274.200 206.715 C 271.120 206.778,268.197 206.730,267.704 206.608 L 266.808 206.387 266.704 186.693 L 266.600 167.000 260.000 167.000 L 253.400 167.000 253.200 186.800 L 253.000 206.600 247.400 206.715 C 244.320 206.778,241.397 206.730,240.905 206.609 L 240.011 206.387 239.905 193.294 L 239.800 180.200 233.300 180.090 L 226.800 179.980 226.794 192.890 C 226.791 199.991,226.648 206.020,226.477 206.289 C 226.258 206.634,224.275 206.812,219.783 206.889 L 213.400 207.000 213.400 213.400 L 213.400 219.800 286.700 219.901 L 360.000 220.002 360.000 213.411 L 360.000 206.820 353.500 206.710 L 347.000 206.600 346.897 180.222 C 346.817 159.729,346.683 153.773,346.297 153.528 C 345.863 153.253,333.752 153.037,333.507 153.300 C 333.456 153.355,333.321 165.370,333.207 180.000 L 333.000 206.600 327.054 206.711 C 323.010 206.786,320.931 206.675,320.554 206.362 C 320.090 205.977,320.000 200.542,320.000 172.951 L 320.000 140.000 313.400 140.000 L 306.800 140.000 306.800 172.920 M60.255 164.569 C 79.000 168.513,93.655 182.535,98.329 201.000 C 99.906 207.227,100.439 214.468,99.632 218.680 C 99.430 219.736,99.051 221.770,98.790 223.200 C 98.529 224.630,97.867 227.060,97.319 228.600 C 96.772 230.140,96.222 231.745,96.098 232.166 C 95.974 232.588,95.018 234.478,93.975 236.366 L 92.077 239.800 56.139 239.800 L 20.200 239.800 20.090 207.600 C 19.964 170.903,19.740 174.188,22.507 172.282 C 33.148 164.953,47.825 161.955,60.255 164.569 M379.783 262.600 C 379.753 279.345,374.252 287.881,360.612 292.348 L 357.400 293.400 200.000 293.400 L 42.600 293.400 39.331 292.330 C 30.265 289.363,23.939 283.081,21.108 274.233 C 20.319 271.771,19.539 255.378,20.136 253.823 C 20.352 253.259,37.613 253.209,200.088 253.300 L 379.800 253.400 379.783 262.600 M193.690 273.300 L 193.800 279.800 200.000 279.800 L 206.200 279.800 206.310 273.300 L 206.420 266.800 200.000 266.800 L 193.580 266.800 193.690 273.300 M268.969 332.904 C 276.136 347.261,282.000 359.231,282.000 359.504 C 282.000 359.897,264.998 360.000,200.000 360.000 C 138.398 360.000,118.000 359.885,118.000 359.539 C 118.000 359.286,123.881 347.316,131.068 332.939 L 144.137 306.800 200.037 306.800 L 255.937 306.800 268.969 332.904 M336.700 374.374 C 341.146 376.920,340.962 383.524,336.379 385.868 L 334.600 386.777 200.446 386.789 C 98.911 386.797,65.912 386.686,64.726 386.331 C 60.208 384.977,58.566 379.177,61.730 375.744 C 64.241 373.020,52.579 373.224,200.600 373.316 L 335.000 373.400 336.700 374.374 " stroke="none" fill="#040404" fill-rule="evenodd"></path><path id="path3" d="M43.000 13.793 C 32.269 15.515,24.668 22.063,21.126 32.635 C 20.203 35.392,20.200 35.462,20.200 57.400 L 20.200 79.400 22.400 79.606 C 25.266 79.874,26.493 80.676,29.400 84.182 C 30.720 85.774,34.386 90.164,37.546 93.938 L 43.292 100.800 50.447 100.800 L 57.602 100.800 58.941 99.300 C 59.678 98.475,62.231 95.460,64.615 92.600 C 75.286 79.798,75.454 79.642,78.573 79.616 C 79.659 79.607,81.549 79.936,82.773 80.346 C 83.998 80.757,89.571 82.591,95.159 84.422 C 109.553 89.139,108.546 87.810,109.638 103.518 C 110.076 109.833,110.524 115.733,110.631 116.628 C 110.814 118.147,115.953 122.487,121.856 126.108 C 122.305 126.384,126.872 125.341,141.658 121.584 C 150.431 119.355,151.044 119.631,157.643 128.800 C 159.464 131.330,162.007 134.840,163.295 136.600 C 170.204 146.042,170.415 146.987,166.864 152.552 C 163.377 158.019,156.551 169.097,155.838 170.449 L 155.075 171.894 157.175 178.362 C 159.666 186.034,157.988 184.683,171.933 190.242 C 183.797 194.971,185.507 195.978,186.327 198.715 C 187.062 201.168,186.981 225.871,186.233 227.651 C 185.363 229.719,181.347 232.800,179.521 232.800 C 179.339 232.800,178.383 233.160,177.396 233.600 C 176.408 234.040,174.792 234.760,173.804 235.200 C 172.817 235.640,171.824 236.000,171.599 236.000 C 171.374 236.000,170.877 236.185,170.495 236.410 C 170.113 236.636,168.270 237.432,166.400 238.179 C 164.339 239.002,163.236 239.629,163.600 239.771 C 163.930 239.900,212.710 239.959,272.000 239.902 L 379.800 239.800 379.800 137.600 L 379.800 35.400 378.874 32.635 C 377.329 28.024,372.604 20.407,371.283 20.398 C 371.127 20.397,370.460 19.891,369.800 19.273 C 367.033 16.682,361.482 14.368,356.284 13.638 C 351.403 12.952,47.300 13.103,43.000 13.793 M133.959 33.593 C 138.609 35.193,139.381 35.576,139.266 36.232 C 139.026 37.611,126.689 74.589,126.339 74.981 C 125.928 75.441,114.403 71.673,114.142 70.994 C 113.895 70.350,126.702 31.908,127.284 31.548 C 127.547 31.386,127.932 31.358,128.140 31.487 C 128.349 31.615,130.967 32.563,133.959 33.593 M219.511 33.536 C 219.897 33.782,219.994 35.402,219.911 40.230 L 219.800 46.600 213.400 46.600 L 207.000 46.600 206.889 40.417 C 206.828 37.016,206.868 34.001,206.977 33.717 C 207.203 33.126,218.606 32.962,219.511 33.536 M359.367 33.443 C 359.909 33.651,360.000 34.632,360.000 40.243 L 360.000 46.800 296.843 46.800 C 239.621 46.800,233.663 46.741,233.443 46.167 C 232.970 44.936,233.174 34.186,233.680 33.680 C 234.189 33.171,358.050 32.937,359.367 33.443 M106.799 40.216 L 111.353 44.833 107.277 48.923 C 102.359 53.857,102.359 52.900,107.277 57.898 L 111.355 62.041 106.679 66.717 L 102.003 71.393 95.557 64.997 C 86.697 56.204,85.563 54.164,87.517 50.528 C 88.209 49.240,101.391 35.600,101.944 35.600 C 102.109 35.600,104.294 37.677,106.799 40.216 M157.907 41.700 C 169.545 53.216,169.545 53.584,157.907 65.100 C 154.516 68.455,151.617 71.200,151.464 71.200 C 150.952 71.200,142.400 62.429,142.400 61.903 C 142.400 61.618,144.110 59.681,146.200 57.600 C 148.290 55.519,150.000 53.583,150.000 53.299 C 150.000 53.014,148.290 51.066,146.200 48.969 C 144.110 46.872,142.400 44.944,142.400 44.685 C 142.400 44.127,150.814 35.600,151.364 35.600 C 151.572 35.600,154.516 38.345,157.907 41.700 M359.911 66.570 C 359.994 71.398,359.897 73.018,359.511 73.264 C 358.926 73.635,181.597 73.727,180.633 73.357 C 179.974 73.105,179.634 60.900,180.268 60.266 C 180.415 60.119,220.870 60.044,270.168 60.099 L 359.800 60.200 359.911 66.570 M293.200 93.400 L 293.200 100.000 236.600 100.000 L 180.000 100.000 180.000 93.400 L 180.000 86.800 236.600 86.800 L 293.200 86.800 293.200 93.400 M293.000 120.000 L 293.000 126.600 237.400 126.710 C 206.820 126.770,181.395 126.721,180.900 126.602 C 180.001 126.385,179.420 114.313,180.268 113.465 C 180.415 113.318,205.840 113.243,236.768 113.299 L 293.000 113.400 293.000 120.000 M320.000 172.951 C 320.000 200.542,320.090 205.977,320.554 206.362 C 320.931 206.675,323.010 206.786,327.054 206.711 L 333.000 206.600 333.207 180.000 C 333.321 165.370,333.456 153.355,333.507 153.300 C 333.752 153.037,345.863 153.253,346.297 153.528 C 346.683 153.773,346.817 159.729,346.897 180.222 L 347.000 206.600 353.500 206.710 L 360.000 206.820 360.000 213.411 L 360.000 220.002 286.700 219.901 L 213.400 219.800 213.400 213.400 L 213.400 207.000 219.783 206.889 C 224.275 206.812,226.258 206.634,226.477 206.289 C 226.648 206.020,226.791 199.991,226.794 192.890 L 226.800 179.980 233.300 180.090 L 239.800 180.200 239.905 193.294 L 240.011 206.387 240.905 206.609 C 241.397 206.730,244.320 206.778,247.400 206.715 L 253.000 206.600 253.200 186.800 L 253.400 167.000 260.000 167.000 L 266.600 167.000 266.704 186.693 L 266.808 206.387 267.704 206.608 C 268.197 206.730,271.120 206.778,274.200 206.715 L 279.800 206.600 279.904 190.107 L 280.009 173.613 280.904 173.392 C 281.397 173.270,284.320 173.222,287.400 173.285 L 293.000 173.400 293.105 189.565 C 293.177 200.685,293.348 205.896,293.654 206.265 C 294.253 206.987,305.603 207.037,306.320 206.320 C 306.686 205.954,306.800 197.991,306.800 172.920 L 306.800 140.000 313.400 140.000 L 320.000 140.000 320.000 172.951 M45.000 163.856 C 35.872 164.878,20.965 171.315,20.179 174.574 C 20.069 175.028,20.029 189.890,20.090 207.600 L 20.200 239.800 56.139 239.800 L 92.077 239.800 93.975 236.366 C 95.018 234.478,95.974 232.588,96.098 232.166 C 96.222 231.745,96.772 230.140,97.319 228.600 C 97.867 227.060,98.529 224.630,98.790 223.200 C 99.051 221.770,99.430 219.736,99.632 218.680 C 100.439 214.468,99.906 207.227,98.329 201.000 C 92.299 177.179,69.271 161.139,45.000 163.856 M110.300 253.500 C 159.635 253.556,240.365 253.556,289.700 253.500 C 339.035 253.444,298.670 253.398,200.000 253.398 C 101.330 253.398,60.965 253.444,110.300 253.500 M379.764 260.600 C 379.763 264.340,379.823 265.924,379.897 264.120 C 379.971 262.315,379.972 259.255,379.898 257.320 C 379.825 255.384,379.764 256.860,379.764 260.600 M20.162 260.600 C 20.162 264.120,20.224 265.506,20.298 263.681 C 20.372 261.856,20.372 258.976,20.297 257.281 C 20.222 255.586,20.161 257.080,20.162 260.600 M196.900 280.297 C 198.605 280.372,201.395 280.372,203.100 280.297 C 204.805 280.222,203.410 280.161,200.000 280.161 C 196.590 280.161,195.195 280.222,196.900 280.297 M266.679 329.500 C 266.967 330.294,268.000 331.897,268.000 331.550 C 268.000 331.202,266.763 328.800,266.583 328.800 C 266.496 328.800,266.539 329.115,266.679 329.500 M281.271 358.800 C 281.385 359.332,272.135 359.400,199.900 359.400 C 155.075 359.400,118.400 359.535,118.400 359.700 C 118.400 360.205,281.509 360.070,281.822 359.565 C 281.969 359.326,281.877 358.921,281.617 358.665 C 281.255 358.310,281.173 358.342,281.271 358.800 M133.100 386.700 C 169.895 386.756,230.105 386.756,266.900 386.700 C 303.695 386.644,273.590 386.598,200.000 386.598 C 126.410 386.598,96.305 386.644,133.100 386.700 " stroke="none" fill="#29abe2" fill-rule="evenodd"></path></g></svg>